<?xml version="1.0" standalone="no"?>
<!DOCTYPE svg PUBLIC "-//W3C//DTD SVG 20010904//EN"
 "http://www.w3.org/TR/2001/REC-SVG-20010904/DTD/svg10.dtd">
<svg version="1.0" xmlns="http://www.w3.org/2000/svg"
 width="1024.000000pt" height="1024.000000pt" viewBox="0 0 1024.000000 1024.000000"
 preserveAspectRatio="xMidYMid meet">

<g transform="translate(0.000000,1024.000000) scale(0.100000,-0.100000)"
fill="#ffffff" stroke="none">
<path d="M7473 7341 c259 -57 455 -144 671 -299 257 -185 506 -530 506 -702 0
-93 -70 -184 -161 -210 -19 -6 -132 -10 -252 -10 -278 0 -275 -1 -417 151
-115 124 -189 180 -311 239 -141 67 -219 83 -399 83 -125 0 -170 -4 -232 -21
-189 -51 -334 -135 -468 -271 -106 -107 -157 -183 -352 -531 -85 -151 -285
-507 -445 -790 -160 -283 -399 -711 -533 -950 -133 -239 -259 -462 -279 -495
-46 -75 -89 -105 -149 -105 -80 0 -103 35 -367 545 -127 248 -298 578 -380
735 -430 828 -587 1133 -892 1739 -334 661 -335 663 -331 716 7 83 68 150 158
175 19 5 132 10 250 11 198 1 219 0 272 -20 32 -12 79 -42 107 -67 58 -52 21
17 745 -1404 456 -894 470 -921 483 -903 7 9 148 255 314 547 506 889 539 947
612 1056 303 455 693 712 1206 795 135 22 516 14 644 -14z m-5577 8 c29 -8 63
-28 96 -58 56 -50 78 -92 481 -931 175 -364 588 -1215 830 -1710 323 -662 337
-692 337 -740 0 -39 -14 -70 -91 -210 -120 -219 -152 -260 -230 -299 -106 -53
-199 -36 -272 50 -78 91 -39 12 -1274 2549 -262 536 -486 1000 -499 1030 -29
68 -31 149 -5 205 37 81 91 105 256 115 195 11 323 11 371 -1z m3721 -20 c48
-23 80 -62 94 -115 9 -29 6 -43 -14 -87 -50 -106 -778 -1343 -807 -1369 -58
-53 -145 -59 -211 -15 -41 27 -72 78 -218 352 -150 284 -151 247 21 549 325
571 366 633 443 673 55 29 79 31 364 32 269 1 287 0 328 -20z m3076 -1573 c46
-19 92 -75 112 -137 15 -45 17 -74 11 -194 -42 -915 -491 -1620 -1231 -1930
-134 -57 -320 -109 -459 -130 -198 -29 -470 -17 -671 29 -254 59 -558 205
-770 371 -200 156 -274 247 -262 322 7 38 235 461 271 501 12 13 33 30 48 38
33 17 111 18 141 3 12 -7 74 -62 137 -124 167 -162 322 -259 518 -325 393
-132 813 -37 1118 252 103 98 166 182 226 305 63 128 69 169 35 209 l-25 29
-590 0 c-581 0 -591 0 -619 21 -41 30 -65 81 -60 129 5 42 261 539 301 583 42
47 42 47 476 52 918 12 1259 11 1293 -4z"/>
</g>
</svg>
